<svg width="512.000000pt" height="512.000000pt" viewBox="0 0 512.000000 512.000000"  xmlns="http://www.w3.org/2000/svg">
    <g transform="translate(0.000000,512.000000) scale(0.100000,-0.100000)" stroke="none">
        <path d="M4050 4850 c-8 -5 -418 -411 -910 -902 l-895 -893 -173 -405 c-94
        -223 -176 -420 -181 -437 -21 -72 32 -150 108 -160 37 -5 85 13 475 183 l435
        188 895 895 896 896 0 55 0 54 -237 239 c-276 277 -300 297 -357 297 -23 0
        -48 -5 -56 -10z m195 -450 l140 -140 -78 -77 -77 -78 -142 142 -143 143 75 75
        c41 41 77 75 80 75 3 0 68 -63 145 -140z m-796 -1083 l-603 -598 -142 142
        -142 141 602 599 601 598 143 -142 144 -142 -603 -598z m-856 -750 c-10 -4
        -83 -36 -163 -71 -80 -35 -147 -63 -149 -61 -1 2 28 78 65 169 l69 165 98 -97
        c81 -81 94 -98 80 -105z"/>
        <path d="M935 2339 c-407 -45 -642 -475 -463 -845 45 -94 168 -219 258 -262
        128 -62 128 -62 757 -62 377 0 590 -4 625 -11 100 -21 187 -92 231 -188 31
        -66 30 -187 -1 -256 -43 -93 -130 -163 -230 -184 -32 -7 -180 -11 -375 -11
        -297 0 -324 -2 -353 -19 -64 -39 -80 -127 -35 -190 39 -54 55 -56 431 -56 300
        0 353 2 409 18 99 27 185 74 256 139 168 154 232 400 161 613 -66 194 -222
        339 -421 390 -49 13 -154 15 -635 15 -638 0 -652 1 -739 63 -54 38 -106 112
        -122 170 -6 23 -9 76 -7 117 7 126 68 213 188 269 53 24 64 26 292 31 l237 5
        30 29 c40 38 55 78 47 121 -10 53 -53 95 -106 106 -55 10 -338 9 -435 -2z"/>
    </g>
</svg>
