<svg width="512.000000pt" height="512.000000pt" viewBox="0 0 512.000000 512.000000" xmlns="http://www.w3.org/2000/svg">
    <g transform="translate(0.000000,512.000000) scale(0.100000,-0.100000)" stroke="none">
        <path d="M644 4645 c-193 -42 -354 -193 -417 -390 l-22 -70 0 -1265 c0 -1408
        -5 -1301 67 -1444 40 -80 154 -194 234 -234 125 -63 109 -62 910 -62 710 0
        730 1 762 20 100 61 96 204 -8 264 -34 21 -51 21 -760 26 l-725 5 -42 22 c-22
        12 -55 39 -72 60 -64 77 -62 16 -59 1364 l3 1224 30 54 c16 29 43 64 60 77 75
        57 5 54 1424 54 l1306 0 50 -24 c52 -23 92 -63 123 -120 16 -28 17 -99 22
        -813 5 -770 5 -782 26 -809 33 -45 70 -67 121 -71 63 -6 110 20 140 77 l23 43
        0 756 c0 831 0 831 -61 958 -23 49 -53 89 -108 143 -88 87 -148 122 -257 150
        -75 19 -113 20 -1393 19 -1050 0 -1328 -3 -1377 -14z"/>
        <path d="M1252 3560 c-62 -38 -92 -132 -61 -193 6 -12 165 -176 352 -364 l342
        -343 -193 0 c-211 0 -228 -4 -275 -60 -72 -85 -22 -213 93 -239 61 -14 704
        -14 769 0 70 15 117 67 126 141 3 29 5 213 3 408 -3 334 -4 357 -23 389 -45
        76 -131 102 -203 61 -74 -42 -82 -70 -82 -291 l0 -194 -342 342 c-189 187
        -353 346 -365 352 -35 18 -104 13 -141 -9z"/>
        <path d="M2920 2193 c-14 -3 -59 -21 -99 -40 -125 -59 -211 -164 -246 -298
        -12 -49 -15 -138 -15 -517 0 -298 4 -475 11 -510 37 -177 190 -325 368 -358
        76 -14 1419 -13 1497 1 90 16 175 62 242 133 65 67 91 112 116 195 24 82 24
        980 0 1062 -42 139 -123 236 -251 297 l-78 37 -760 1 c-418 1 -771 0 -785 -3z
        m1493 -314 c47 -24 76 -62 87 -113 8 -34 10 -186 8 -466 -3 -394 -4 -417 -23
        -449 -11 -19 -33 -43 -48 -55 -28 -21 -34 -21 -738 -24 -786 -3 -754 -5 -802
        62 -22 31 -22 33 -25 491 -2 445 -2 461 18 493 11 18 34 41 52 52 32 19 52 20
        741 20 504 0 715 -3 730 -11z"/>
    </g>
</svg>
